<?xml version="1.0" standalone="no"?>
<!DOCTYPE svg PUBLIC "-//W3C//DTD SVG 20010904//EN"
 "http://www.w3.org/TR/2001/REC-SVG-20010904/DTD/svg10.dtd">
<svg version="1.0" xmlns="http://www.w3.org/2000/svg"
 width="512.000000pt" height="512.000000pt" viewBox="0 0 512.000000 512.000000"
 preserveAspectRatio="xMidYMid meet">
<metadata>
Created by potrace 1.11, written by Peter Selinger 2001-2013
</metadata>
<g transform="translate(0.000000,512.000000) scale(0.100000,-0.100000)"
fill="#000000" stroke="none">
<path d="M2380 4950 c-566 -43 -1093 -285 -1498 -689 -377 -375 -616 -860
-687 -1397 -21 -153 -21 -442 -1 -594 113 -874 687 -1610 1506 -1933 182 -72
389 -122 630 -152 60 -7 417 -7 472 0 226 31 401 72 563 130 225 80 502 238
700 398 108 87 305 292 393 409 546 726 639 1683 242 2493 -345 704 -1012
1196 -1780 1313 -157 24 -390 34 -540 22z m250 -779 c43 -23 76 -69 85 -121 9
-52 -21 -118 -69 -155 -68 -52 -176 -34 -230 38 -17 22 -21 43 -21 97 0 59 3
72 25 96 60 65 140 83 210 45z m-1092 -351 c68 -42 92 -132 52 -197 -52 -85
-162 -94 -229 -18 -43 49 -49 94 -20 152 40 78 127 106 197 63z m2163 5 c93
-48 91 -202 -2 -251 -91 -46 -209 25 -209 126 0 50 45 116 90 133 30 11 92 7
121 -8z m-1081 -77 c107 -56 108 -208 0 -265 -49 -26 -87 -29 -134 -9 -65 27
-104 109 -86 178 29 103 124 144 220 96z m557 -122 c43 -46 50 -91 25 -149
-21 -48 -77 -87 -123 -87 -36 0 -103 37 -121 67 -33 56 -27 124 15 169 57 63
146 63 204 0z m-1086 29 c92 -48 92 -202 0 -250 -17 -8 -51 -15 -76 -15 -39 0
-52 5 -88 39 -40 38 -42 42 -42 100 0 53 4 63 30 91 17 18 39 36 50 40 33 14
94 11 126 -5z m1451 -170 c28 -11 58 -69 58 -111 0 -50 -29 -96 -73 -117 -43
-21 -70 -21 -105 -3 -91 48 -107 153 -33 220 36 33 90 37 153 11z m-1841 -8
c22 -15 39 -38 49 -65 50 -144 -156 -243 -234 -112 -19 33 -21 106 -2 138 34
62 125 81 187 39z m927 -123 c43 -28 64 -74 59 -132 -3 -45 -9 -59 -40 -89
-30 -31 -44 -37 -89 -40 -69 -5 -112 20 -139 82 -25 57 -18 104 23 151 47 54
127 65 186 28z m-468 -50 c107 -43 106 -201 -2 -242 -53 -21 -105 -8 -145 35
-28 29 -33 42 -33 81 0 58 26 102 71 125 43 21 59 21 109 1z m896 -3 c32 -20
64 -74 64 -111 0 -36 -31 -91 -64 -112 -23 -14 -43 -18 -80 -15 -42 4 -55 10
-83 41 -28 31 -33 43 -33 87 0 46 4 55 39 90 33 33 45 39 82 39 25 0 57 -8 75
-19z m-1685 -16 c37 -20 69 -70 69 -111 0 -71 -79 -132 -151 -117 -40 8 -87
56 -94 97 -13 69 49 146 118 146 15 0 41 -7 58 -15z m2475 -4 c58 -35 69 -134
21 -179 -56 -52 -129 -51 -177 4 -36 42 -40 93 -10 142 33 54 108 69 166 33z
m482 -38 c33 -20 55 -78 47 -121 -4 -19 -19 -48 -35 -64 -24 -23 -37 -28 -79
-28 -42 0 -56 5 -83 29 -30 26 -33 35 -33 84 0 41 5 61 20 77 43 49 109 58
163 23z m-3425 -7 c100 -42 91 -196 -13 -227 -75 -23 -160 38 -160 115 0 43
34 94 73 111 41 18 60 18 100 1z m2481 -60 c99 -41 104 -181 7 -220 -95 -37
-170 25 -161 134 2 31 35 68 75 86 38 17 39 17 79 0z m-1567 -16 c39 -24 54
-50 55 -99 0 -48 -15 -77 -55 -101 -84 -51 -187 4 -187 100 0 96 103 151 187
100z m-670 -155 c30 -34 38 -69 23 -104 -33 -81 -122 -103 -180 -46 -42 43
-49 90 -18 135 43 63 127 70 175 15z m2966 5 c40 -45 38 -101 -7 -146 -38 -38
-77 -44 -126 -19 -37 19 -52 48 -52 96 2 101 117 145 185 69z m-417 1 c42 -26
60 -78 44 -126 -39 -118 -210 -90 -210 35 0 42 15 67 53 90 40 25 73 25 113 1z
m-2173 -11 c31 -24 50 -78 41 -114 -9 -39 -68 -86 -107 -86 -33 0 -72 21 -94
50 -32 42 -18 121 28 154 33 23 100 21 132 -4z m1088 -45 c40 -21 69 -71 69
-119 0 -121 -156 -178 -234 -85 -25 29 -31 53 -26 109 6 82 113 135 191 95z
m-361 -44 c14 -10 33 -34 43 -54 17 -33 17 -42 5 -79 -45 -143 -255 -97 -235
52 12 92 109 134 187 81z m715 15 c62 -26 89 -98 60 -160 -21 -44 -59 -66
-116 -66 -33 0 -47 6 -75 34 -29 29 -34 41 -34 80 0 68 47 117 118 125 7 0 28
-5 47 -13z m-1005 -115 c52 -51 52 -111 0 -162 -42 -43 -100 -41 -146 5 -28
28 -34 42 -34 76 0 34 6 48 34 76 46 46 104 48 146 5z m1319 3 c90 -76 7 -221
-105 -184 -65 22 -94 98 -60 159 31 55 114 68 165 25z m-1982 -19 c34 -39 31
-98 -6 -136 -39 -38 -87 -39 -130 -3 -27 22 -31 32 -31 74 0 42 4 52 32 75 27
23 39 26 72 22 27 -4 49 -15 63 -32z m2644 6 c63 -63 23 -161 -66 -161 -32 0
-48 6 -69 26 -58 59 -14 164 69 164 27 0 44 -8 66 -29z m-446 -85 c40 -17 55
-42 55 -94 0 -29 -7 -46 -26 -66 -60 -59 -164 -14 -164 71 1 44 15 66 56 88
36 18 37 18 79 1z m-1778 -31 c42 -48 25 -124 -34 -154 -85 -43 -176 53 -129
138 32 57 121 66 163 16z m883 -90 c37 -19 60 -62 60 -112 0 -66 -52 -113
-125 -113 -26 0 -45 9 -73 34 -33 31 -37 40 -37 84 0 40 5 56 25 77 43 47 97
57 150 30z m-1151 -30 c77 -39 43 -165 -44 -165 -89 0 -119 125 -40 168 27 15
51 15 84 -3z m1436 -1 c48 -22 71 -75 56 -125 -16 -52 -53 -79 -108 -79 -62 0
-103 40 -103 100 0 52 13 76 53 100 39 24 59 25 102 4z m-566 -8 c73 -38 64
-159 -14 -192 -114 -47 -208 101 -114 180 35 30 84 34 128 12z m1416 -11 c36
-35 35 -96 -1 -124 -33 -26 -84 -27 -115 -2 -19 15 -24 29 -24 66 0 37 5 51
24 66 33 27 86 25 116 -6z m-1658 -80 c34 -39 31 -98 -6 -136 -40 -40 -89 -40
-133 0 -27 24 -33 36 -33 71 0 35 6 47 34 72 29 26 39 30 75 25 27 -4 49 -15
63 -32z m1081 10 c55 -47 44 -130 -21 -161 -100 -48 -186 78 -108 157 38 38
87 39 129 4z m-1327 -84 c32 -33 36 -58 14 -100 -16 -33 -33 -41 -81 -41 -75
0 -108 80 -58 139 35 42 84 43 125 2z m1557 6 c36 -38 38 -78 7 -115 -21 -25
-34 -32 -64 -32 -83 0 -120 93 -59 150 31 28 88 27 116 -3z m-1773 -102 c72
-71 -20 -176 -99 -114 -52 41 -18 139 49 139 14 0 37 -11 50 -25z m1978 -6
c37 -46 3 -119 -57 -119 -50 0 -76 24 -76 70 0 73 86 105 133 49z m-2197 -299
c-26 -28 -59 -76 -74 -108 -23 -49 -27 -70 -27 -147 0 -81 3 -97 33 -160 18
-38 44 -84 58 -103 26 -33 26 -62 1 -62 -19 0 -87 75 -120 131 -37 63 -61 162
-53 224 3 27 19 78 36 112 36 74 128 163 167 163 25 0 24 -2 -21 -50z m264 35
c38 -20 70 -82 70 -137 0 -51 -27 -114 -62 -146 l-25 -23 44 -107 c25 -59 53
-129 64 -155 l19 -48 -31 3 c-30 3 -33 7 -99 171 l-68 168 30 15 c42 22 68 70
68 126 0 56 -29 95 -77 104 l-33 7 0 -297 0 -296 -30 0 -30 0 0 315 0 315 65
0 c40 0 78 -6 95 -15z m320 -15 c59 -63 92 -236 71 -377 -12 -89 -44 -174 -75
-206 -29 -28 -71 -22 -99 16 -47 62 -62 130 -62 277 0 161 18 235 70 287 41
41 59 41 95 3z m156 -7 c29 -157 62 -305 66 -297 3 5 9 29 13 54 22 144 49
271 55 259 4 -8 18 -83 31 -166 13 -84 26 -153 30 -153 3 0 10 19 16 43 28
116 75 283 83 290 4 5 17 7 27 5 19 -3 18 -10 -23 -193 -24 -104 -56 -243 -71
-307 -24 -109 -43 -150 -43 -95 0 12 -9 65 -19 117 -10 52 -22 113 -26 135
l-8 40 -7 -30 c-4 -16 -16 -88 -26 -158 -9 -70 -21 -124 -25 -120 -3 4 -32
136 -63 293 -31 157 -59 293 -62 303 -4 13 0 17 20 17 21 0 26 -6 32 -37z
m494 -145 c29 -101 56 -188 59 -195 3 -6 4 76 3 183 l-4 194 31 0 31 0 0 -314
c0 -294 -5 -349 -27 -314 -4 7 -38 110 -75 228 l-67 215 -1 -222 0 -223 -30 0
-30 0 0 315 0 315 28 0 c28 0 29 -1 82 -182z m484 135 c-136 -137 -142 -332
-15 -517 27 -39 29 -45 15 -57 -13 -10 -23 -5 -65 37 -28 27 -64 78 -82 114
-29 59 -32 73 -32 160 0 81 4 102 24 140 46 86 133 170 178 170 23 0 21 -3
-23 -47z m156 -268 l0 -315 -30 0 -30 0 0 315 0 315 30 0 30 0 0 -315z m310
285 c0 -29 -1 -30 -50 -30 l-50 0 0 -285 0 -285 -35 0 -35 0 0 285 0 285 -45
0 c-43 0 -45 1 -45 30 l0 30 130 0 130 0 0 -30z m121 -105 c24 -74 45 -135 48
-135 3 0 26 60 51 133 43 123 48 132 73 135 15 2 27 0 27 -5 0 -4 -27 -82 -60
-172 l-60 -165 0 -143 0 -143 -30 0 -30 0 0 144 0 143 -60 167 c-33 92 -60
169 -60 172 0 2 13 4 30 4 29 0 30 -2 71 -135z m-2085 -606 c25 -23 33 -59 13
-59 -6 0 -24 14 -39 30 -35 38 -64 38 -101 1 -23 -23 -29 -38 -29 -71 0 -42
14 -79 34 -92 18 -12 74 -9 86 5 5 6 18 22 28 34 26 35 45 16 25 -25 -28 -57
-94 -77 -154 -46 -77 39 -77 196 0 240 37 20 106 12 137 -17z m848 21 c34 -13
64 -59 46 -70 -9 -6 -22 1 -41 21 -32 34 -61 37 -89 9 -28 -28 -16 -46 38 -59
83 -21 97 -32 100 -79 3 -38 0 -43 -30 -62 -49 -30 -103 -26 -139 9 -34 34
-38 61 -9 61 11 0 20 -6 20 -14 0 -37 87 -53 118 -22 25 25 4 48 -62 67 -69
21 -86 34 -86 66 0 65 63 100 134 73z m1242 -5 c63 -26 85 -131 41 -196 -73
-108 -220 -58 -220 76 0 104 83 160 179 120z m-1658 -113 c23 -64 42 -120 42
-125 0 -4 -8 -7 -19 -7 -12 0 -23 12 -32 36 -13 34 -17 36 -61 38 -46 2 -48 1
-63 -36 -10 -26 -21 -38 -35 -38 -22 0 -26 -14 42 155 11 28 24 60 29 73 5 14
17 22 31 22 20 0 28 -15 66 -118z m772 -7 c0 -118 -1 -125 -20 -125 -19 0 -20
7 -20 125 0 118 1 125 20 125 19 0 20 -7 20 -125z m360 33 l60 -93 0 93 c0 85
1 92 20 92 19 0 20 -7 20 -125 0 -119 -1 -125 -20 -125 -15 0 -38 26 -83 96
l-62 97 -3 -97 c-2 -86 -5 -97 -20 -94 -15 3 -17 19 -20 126 l-3 122 26 0 c21
0 35 -16 85 -92z"/>
<path d="M1908 1943 c-9 -27 -13 -94 -13 -228 0 -157 3 -197 18 -228 9 -21 21
-36 26 -33 35 22 51 394 20 480 -19 52 -34 55 -51 9z"/>
<path d="M3593 1268 c-21 -23 -26 -46 -24 -100 2 -41 34 -68 79 -68 50 0 74
26 79 87 4 39 1 53 -17 76 -28 36 -86 38 -117 5z"/>
<path d="M1959 1225 l-17 -45 35 0 c31 0 34 2 27 23 -11 36 -23 67 -26 67 -2
0 -10 -20 -19 -45z"/>
</g>
</svg>
