<?xml version="1.0" standalone="no"?>
<!DOCTYPE svg PUBLIC "-//W3C//DTD SVG 20010904//EN"
 "http://www.w3.org/TR/2001/REC-SVG-20010904/DTD/svg10.dtd">
<svg version="1.0" xmlns="http://www.w3.org/2000/svg"
 width="500.000000pt" height="500.000000pt" viewBox="0 0 500.000000 500.000000"
 preserveAspectRatio="xMidYMid meet">
<metadata>
Created by potrace 1.11, written by Peter Selinger 2001-2013
</metadata>
<g transform="translate(0.000000,500.000000) scale(0.100000,-0.100000)"
fill="#000000" stroke="none">
<path d="M2360 4834 c-412 -35 -738 -138 -1069 -336 -202 -122 -440 -330 -596
-523 -206 -254 -365 -568 -444 -878 -141 -550 -86 -1113 158 -1612 123 -252
279 -465 487 -665 363 -349 829 -569 1339 -631 128 -15 402 -15 530 0 966 118
1754 809 1990 1746 50 201 68 351 68 575 0 377 -72 688 -238 1025 -125 253
-259 438 -467 641 -365 358 -815 575 -1330 643 -86 12 -358 21 -428 15z m210
-756 c50 -34 72 -71 78 -126 18 -188 -242 -247 -313 -70 -28 71 -3 148 62 193
50 34 126 35 173 3z m-1077 -345 c87 -44 88 -190 2 -243 -94 -58 -215 8 -215
118 0 72 30 114 97 137 40 14 70 11 116 -12z m2135 0 c64 -40 83 -146 36 -203
-38 -44 -80 -63 -126 -57 -102 14 -155 111 -112 203 36 76 131 103 202 57z
m-1062 -73 c35 -22 74 -91 74 -130 0 -35 -36 -102 -67 -125 -41 -29 -129 -32
-171 -5 -67 42 -89 149 -45 217 41 63 143 83 209 43z m-540 -86 c110 -52 108
-207 -3 -256 -61 -27 -105 -18 -154 31 -49 48 -58 93 -31 154 33 75 115 106
188 71z m1045 1 c92 -48 92 -202 0 -250 -63 -32 -148 -9 -187 51 -11 16 -18
46 -18 74 0 28 7 58 18 74 39 60 124 83 187 51z m-1432 -173 c67 -36 90 -121
48 -183 -28 -41 -60 -59 -110 -59 -57 0 -96 25 -119 76 -23 54 -18 91 20 135
43 52 101 63 161 31z m1821 2 c37 -23 60 -64 60 -111 0 -50 -18 -82 -59 -110
-104 -70 -239 49 -185 162 32 68 120 96 184 59z m-901 -132 c47 -35 66 -70 65
-122 -1 -82 -59 -140 -140 -140 -75 0 -144 70 -144 145 0 107 136 180 219 117z
m-454 -46 c87 -37 102 -171 25 -228 -61 -45 -150 -27 -190 37 -39 63 -16 151
49 185 44 23 71 25 116 6z m874 0 c39 -21 64 -63 65 -112 3 -123 -138 -180
-221 -90 -76 82 -20 215 90 216 21 0 51 -7 66 -14z m-1649 -22 c38 -23 60 -64
60 -114 0 -34 -6 -48 -34 -76 -33 -33 -52 -39 -106 -34 -37 3 -59 17 -80 53
-66 107 53 233 160 171z m2429 1 c31 -15 61 -69 61 -107 0 -36 -37 -88 -75
-104 -44 -18 -59 -18 -101 2 -42 20 -64 59 -64 115 0 33 6 47 34 75 28 28 42
34 75 34 23 0 55 -7 70 -15z m474 -37 c26 -13 57 -68 57 -101 0 -36 -23 -81
-52 -101 -13 -9 -43 -16 -70 -16 -68 0 -109 37 -115 106 -5 43 -2 54 22 82 40
47 101 59 158 30z m-3346 -23 c14 -9 31 -32 39 -51 43 -102 -62 -205 -161
-158 -44 21 -65 51 -71 101 -13 99 106 165 193 108z m2450 -61 c61 -39 67
-134 12 -184 -55 -52 -134 -43 -177 20 -73 108 56 236 165 164z m-1569 0 c49
-34 66 -112 36 -164 -62 -104 -222 -62 -224 58 0 73 48 122 120 122 25 0 56
-7 68 -16z m-672 -145 c27 -25 43 -72 36 -107 -2 -12 -17 -36 -32 -52 -57 -61
-170 -27 -186 56 -19 104 106 175 182 103z m2923 5 c60 -50 48 -147 -23 -180
-97 -47 -195 60 -142 155 31 55 114 68 165 25z m-2564 -10 c72 -34 84 -128 24
-178 -72 -61 -179 -16 -179 74 0 52 13 76 53 100 39 24 59 25 102 4z m2168 -5
c63 -49 54 -152 -16 -185 -75 -36 -157 16 -157 98 0 86 107 140 173 87z
m-1093 -45 c22 -9 50 -30 62 -47 28 -39 29 -110 3 -150 -51 -79 -176 -75 -225
6 -52 85 5 189 112 206 4 0 26 -6 48 -15z m-339 -47 c86 -57 64 -182 -37 -217
-72 -25 -154 40 -154 123 0 32 7 46 39 78 32 32 46 39 78 39 25 0 53 -9 74
-23z m718 8 c30 -15 61 -69 61 -105 0 -54 -65 -120 -118 -120 -38 0 -92 30
-107 61 -57 108 56 221 164 164z m-996 -115 c53 -60 29 -155 -47 -180 -71 -23
-153 45 -142 119 14 94 126 130 189 61z m1286 14 c55 -46 59 -114 9 -164 -56
-56 -156 -30 -177 45 -29 106 87 188 168 119z m640 2 c90 -47 50 -186 -54
-186 -14 0 -39 13 -57 29 -27 24 -33 36 -33 71 0 35 6 47 33 71 36 32 69 36
111 15z m-2584 -28 c55 -65 10 -158 -76 -158 -86 0 -129 93 -73 159 22 27 32
31 74 31 42 0 52 -4 75 -32z m402 -103 c32 -32 35 -39 30 -78 -7 -53 -44 -87
-93 -87 -46 0 -70 14 -89 50 -24 46 -19 78 19 116 47 47 86 46 133 -1z m1779
17 c50 -40 55 -109 11 -150 -33 -31 -70 -36 -110 -17 -94 44 -61 185 42 185
20 0 46 -8 57 -18z m-874 -129 c80 -80 25 -203 -91 -203 -112 0 -153 161 -57
222 45 28 109 19 148 -19z m-1163 -8 c34 -17 55 -62 45 -99 -8 -35 -49 -66
-86 -66 -41 0 -88 48 -88 90 0 22 9 41 29 61 33 32 58 36 100 14z m1415 0 c69
-33 86 -112 35 -170 -27 -30 -37 -35 -76 -35 -55 0 -78 12 -98 50 -32 61 -10
130 50 156 39 17 51 17 89 -1z m-555 -9 c45 -24 63 -84 41 -140 -11 -30 -65
-66 -98 -66 -40 0 -83 29 -99 67 -41 100 58 189 156 139z m1383 3 c28 -15 50
-72 39 -101 -25 -65 -105 -84 -147 -34 -67 77 18 183 108 135z m-1632 -86 c20
-18 33 -41 37 -65 5 -33 2 -41 -30 -73 -46 -46 -95 -49 -138 -6 -90 91 36 229
131 144z m1081 -2 c78 -78 -9 -204 -108 -157 -65 31 -76 114 -21 161 42 35 91
34 129 -4z m-1316 -74 c74 -63 -8 -187 -95 -142 -35 18 -50 43 -50 85 0 70 89
106 145 57z m1540 -2 c54 -53 16 -145 -59 -145 -79 0 -119 89 -66 145 32 34
91 35 125 0z m-1751 -96 c20 -16 26 -29 26 -59 0 -71 -76 -104 -125 -55 -50
49 -17 135 50 135 12 0 34 -9 49 -21z m1943 -1 c49 -45 14 -128 -54 -128 -42
0 -73 30 -73 72 0 68 78 102 127 56z m-2155 -303 c-117 -127 -137 -263 -62
-422 16 -35 40 -78 55 -97 22 -29 23 -35 10 -46 -12 -10 -19 -8 -40 8 -120 95
-176 280 -125 414 33 88 141 198 194 198 14 0 6 -13 -32 -55z m259 32 c85 -56
92 -193 16 -270 l-33 -32 62 -150 62 -150 -25 -3 c-14 -2 -29 0 -33 5 -12 12
-130 308 -130 324 0 8 10 19 22 24 37 16 68 73 68 122 0 36 -6 50 -29 74 -17
17 -40 29 -55 29 l-26 0 0 -290 0 -290 -30 0 -30 0 0 315 0 315 64 0 c49 0 71
-5 97 -23z m463 6 c2 -10 17 -81 31 -158 32 -165 40 -185 48 -119 3 27 16 103
28 168 26 138 27 137 59 -59 12 -71 24 -137 27 -145 3 -8 16 26 29 75 59 226
68 250 92 253 15 2 22 -2 22 -12 0 -9 -23 -116 -50 -238 -28 -123 -58 -255
-67 -295 -17 -78 -27 -85 -37 -26 -4 21 -16 90 -28 153 l-22 115 -12 -70 c-6
-38 -17 -110 -24 -158 -7 -48 -15 -85 -19 -82 -9 9 -129 604 -123 610 12 12
41 4 46 -12z m495 -177 l56 -188 3 191 2 191 30 0 30 0 0 -315 c0 -299 -1
-315 -18 -315 -19 0 -27 23 -131 360 l-20 65 0 -212 -1 -213 -30 0 -30 0 0
316 0 315 26 -3 c26 -3 30 -12 83 -192z m485 152 c-83 -87 -116 -162 -116
-264 0 -84 36 -186 95 -265 19 -27 18 -59 -3 -59 -21 0 -102 97 -133 160 -29
59 -32 73 -32 160 0 86 3 100 30 148 38 70 137 162 173 162 26 0 26 0 -14 -42z
m136 -273 l0 -315 -30 0 -30 0 0 308 c0 170 3 312 7 315 3 4 17 7 30 7 l23 0
0 -315z m318 283 c3 -28 2 -28 -52 -28 l-56 0 0 -285 0 -285 -35 0 -35 0 0
285 0 285 -45 0 c-43 0 -45 1 -45 30 l0 31 133 -3 132 -3 3 -27z m112 -105
c25 -73 47 -133 50 -133 3 0 20 47 39 103 53 160 56 167 85 167 15 0 26 -2 26
-4 0 -2 -27 -80 -60 -173 l-60 -168 0 -142 0 -143 -30 0 -30 0 0 139 0 139
-60 169 c-33 92 -60 172 -60 176 0 5 12 7 28 5 25 -3 30 -11 72 -135z m-1696
104 c13 -13 34 -50 46 -83 21 -51 24 -77 24 -199 1 -153 -13 -219 -61 -282
-79 -107 -177 46 -177 277 0 222 86 369 168 287z m960 -667 c26 -10 32 -31 19
-65 -11 -30 -121 -93 -193 -112 -79 -20 -88 -36 -45 -78 57 -58 214 -7 188 61
-4 12 -2 15 8 12 45 -15 -16 -97 -86 -117 -98 -27 -172 6 -178 78 -1 15 -8 21
-27 21 -35 0 -70 11 -70 21 0 4 22 5 49 2 44 -5 50 -3 56 16 18 58 115 135
195 157 57 16 54 16 84 4z m-1138 -24 c3 -8 -2 -28 -10 -44 -22 -43 -57 -132
-51 -132 3 0 30 34 60 75 80 107 91 103 50 -19 -32 -94 -32 -130 -1 -161 26
-25 24 -37 -2 -28 -49 17 -68 68 -53 135 12 50 2 42 -53 -42 -65 -98 -79 -95
-51 13 8 32 15 61 15 64 0 3 -25 -17 -55 -46 -86 -82 -179 -111 -249 -79 -84
38 -7 123 111 123 34 0 67 -5 73 -11 9 -9 -4 -11 -52 -7 -48 4 -72 1 -96 -11
-59 -30 -33 -79 42 -79 86 0 200 89 268 211 31 53 44 63 54 38z m1554 -91 c0
-8 -6 -15 -14 -15 -17 0 -28 14 -19 24 12 12 33 6 33 -9z m-80 -28 c0 -8 -9
-22 -19 -31 -17 -15 -18 -22 -8 -43 10 -22 8 -28 -15 -48 -22 -19 -36 -22 -90
-20 -82 3 -78 2 -78 25 0 18 -2 18 -37 -6 -40 -27 -60 -28 -76 -3 -29 46 73
126 143 114 19 -4 36 -8 38 -10 2 -1 -5 -18 -14 -38 -22 -45 -13 -73 17 -56
16 8 28 8 47 0 35 -16 52 1 28 28 -13 15 -27 18 -54 15 l-37 -4 34 13 c19 7
37 20 39 28 8 27 35 49 59 49 13 0 23 -6 23 -13z m427 -18 c-4 -15 0 -23 14
-26 22 -6 26 -23 6 -23 -8 0 -19 -11 -25 -25 -30 -66 -152 -70 -152 -5 0 22
54 70 86 76 19 3 37 10 40 15 3 5 12 9 21 9 11 0 14 -6 10 -21z m-1687 -4 c0
-13 -40 -46 -96 -81 -18 -11 -17 -12 9 -19 22 -6 36 -2 58 14 16 12 29 18 29
13 0 -17 -38 -43 -72 -49 -96 -15 -106 75 -13 122 39 20 85 20 85 0z m177 9
l30 -6 -19 -50 c-45 -120 -82 -162 -136 -156 -40 5 -40 33 0 58 43 26 58 26
29 -1 -16 -15 -20 -24 -12 -32 13 -13 33 10 55 66 l15 38 -31 -26 c-42 -35
-82 -31 -86 9 -4 33 27 71 73 92 35 15 42 16 82 8z m221 -9 c2 -1 -5 -18 -14
-38 -17 -35 -13 -74 6 -62 5 3 10 2 10 -4 0 -16 -19 -23 -46 -17 -18 5 -24 13
-24 34 -1 23 -2 24 -11 9 -5 -9 -23 -24 -40 -33 -70 -36 -95 24 -34 82 19 18
45 35 57 37 21 5 89 -1 96 -8z m1003 -23 c-22 -42 -10 -43 34 -3 47 43 83 55
70 24 -24 -58 -28 -72 -22 -88 4 -10 13 -15 22 -11 8 3 15 1 15 -4 0 -17 -49
-23 -66 -9 -11 9 -14 23 -10 48 l5 34 -42 -41 c-63 -62 -82 -56 -52 16 10 24
12 38 5 40 -18 6 -11 20 13 24 30 5 41 -6 28 -30z m-71 16 c0 -29 -39 -113
-54 -116 -20 -4 -20 2 1 57 13 33 14 46 5 49 -23 7 -12 22 18 22 17 0 30 -5
30 -12z"/>
<path d="M1859 1883 c-38 -100 -22 -483 20 -483 25 0 36 79 36 255 0 124 -4
192 -13 218 -16 44 -29 47 -43 10z"/>
<path d="M2765 1244 c-54 -28 -115 -98 -115 -133 0 -15 104 24 154 58 65 45
74 91 18 91 -15 0 -40 -7 -57 -16z"/>
<path d="M3170 1120 c0 -5 5 -10 10 -10 6 0 10 5 10 10 0 6 -4 10 -10 10 -5 0
-10 -4 -10 -10z"/>
<path d="M2971 1084 c-28 -23 -43 -64 -23 -64 4 0 28 20 52 45 38 39 41 45 23
45 -12 0 -35 -12 -52 -26z"/>
<path d="M3555 1085 c-29 -28 -30 -34 -12 -60 19 -25 62 -13 80 22 13 23 12
28 -4 44 -25 25 -35 24 -64 -6z"/>
<path d="M1879 1091 c-13 -11 -20 -23 -16 -27 4 -4 17 2 29 14 28 28 18 38
-13 13z"/>
<path d="M2051 1075 c-34 -39 -39 -55 -16 -55 15 0 59 42 76 73 18 33 -27 19
-60 -18z"/>
<path d="M2251 1084 c-28 -23 -43 -64 -23 -64 10 0 82 73 82 83 0 15 -30 6
-59 -19z"/>
</g>
</svg>
